<svg width="151" height="48" viewBox="0 0 151 48" fill="none" xmlns="http://www.w3.org/2000/svg">
<path d="M7.99863 24.0124L24.0124 8.00686C15.1735 8.00686 7.99863 15.1735 7.99863 24.0124Z" fill="#D2111A"/>
<path d="M24.0124 40.0261L7.99863 24.0124C7.99863 32.8512 15.1653 40.0261 24.0124 40.0261Z" fill="#D2111A"/>
<path d="M16.0055 24.0124L24.0124 32.0192L32.0192 24.0124L30.0175 22.0106L26.0141 26.0141L22.0106 22.0106L30.0175 14.0038L40.0261 24.0124C40.0261 15.1735 32.8594 8.00686 24.0124 8.00686L28.0158 12.0103L16.0137 24.0124H16.0055Z" fill="#D2111A"/>
<path d="M24.0124 40.0261C32.8512 40.0261 40.0261 32.8594 40.0261 24.0124L24.0124 40.0261Z" fill="#D2111A"/>
<path d="M83.5037 17.6283C83.3142 18.1472 82.9353 18.7156 81.6585 18.7156H80.7771V11.1206H81.6585C82.9435 11.1124 83.3142 11.689 83.5037 12.208C83.6932 12.7352 83.7014 13.3695 83.7014 14.9181C83.7014 16.4668 83.7014 17.1011 83.5037 17.6283ZM81.7573 9.18483H78.7095V20.6514H81.7573C83.5531 20.6514 84.6981 20.0419 85.2253 18.8804C85.6619 17.9166 85.769 17.1917 85.769 14.9181C85.769 12.6446 85.6619 11.9197 85.2253 10.9559C84.6899 9.79441 83.5531 9.18483 81.7573 9.18483ZM73.7258 17.9084C73.6022 18.6827 72.9926 19.0287 72.2348 19.0287C71.4769 19.0287 70.8673 18.6827 70.7438 17.9084C70.6861 17.5294 70.6779 16.4174 70.6779 14.9099C70.6779 13.4024 70.6779 12.2904 70.7438 11.9114C70.8673 11.1371 71.4769 10.7911 72.2348 10.7911C72.9926 10.7911 73.6022 11.1371 73.7258 11.9114C73.7834 12.2904 73.7917 13.4024 73.7917 14.9099C73.7917 16.4174 73.7917 17.5294 73.7258 17.9084ZM72.2348 8.79767C69.8377 8.79767 68.8574 10.2228 68.6515 11.5819C68.5444 12.2409 68.5526 13.4519 68.5526 14.9181C68.5526 16.3844 68.5526 17.5953 68.6515 18.2543C68.8656 19.6135 69.8377 21.0386 72.2348 21.0386C74.6319 21.0386 75.6039 19.6135 75.8181 18.2543C75.9169 17.5953 75.9169 16.3844 75.9169 14.9181C75.9169 13.4519 75.9169 12.2409 75.8181 11.5819C75.6039 10.2228 74.6319 8.79767 72.2348 8.79767ZM63.7254 17.9166C63.6019 18.6909 62.9923 19.0369 62.2344 19.0369C61.4766 19.0369 60.867 18.6909 60.7434 17.9166C60.6858 17.5377 60.6775 16.4256 60.6775 14.9181C60.6775 13.4107 60.6775 12.3068 60.7434 11.9197C60.867 11.1454 61.4766 10.7994 62.2344 10.7994C62.9923 10.7994 63.6101 11.1454 63.7254 11.9197C63.7831 12.2986 63.7913 13.4107 63.7913 14.9181C63.7913 16.4256 63.7913 17.5294 63.7254 17.9166ZM62.2344 8.8059C59.8373 8.8059 58.8653 10.231 58.6511 11.5902C58.5523 12.2492 58.5523 13.4601 58.5523 14.9181C58.5523 16.3762 58.5523 17.5953 58.6511 18.2543C58.8653 19.6135 59.8373 21.0386 62.2344 21.0386C64.6315 21.0386 65.6118 19.6135 65.826 18.2543C65.9248 17.5953 65.9248 16.3844 65.9248 14.9181C65.9248 13.4519 65.9248 12.2409 65.826 11.5902C65.6118 10.231 64.6398 8.8059 62.2344 8.8059ZM52.3494 16.335H53.7992C53.7992 17.0846 53.7992 17.653 53.758 17.9166C53.6345 18.7321 53.1237 19.0369 52.3412 19.0369C51.5586 19.0369 51.0149 18.6909 50.8996 17.9166C50.8337 17.5377 50.8337 16.4256 50.8337 14.9181C50.8337 13.4107 50.8337 12.3068 50.8996 11.9197C51.0232 11.1454 51.5421 10.7994 52.3 10.7994C53.0578 10.7994 53.5603 11.1783 53.6757 11.9197C53.7004 12.0844 53.7168 12.4963 53.7251 12.8505H55.8009C55.8009 12.4304 55.7762 11.862 55.7268 11.5737C55.5209 10.2557 54.6889 8.78943 52.3247 8.78943C49.9605 8.78943 49.0132 10.2145 48.799 11.5737C48.7002 12.2327 48.7002 13.4436 48.7002 14.9017C48.7002 16.3597 48.7002 17.5789 48.799 18.2379C49.0132 19.6135 50.0429 21.0221 52.1599 21.0221C53.1896 21.0221 53.9228 20.6267 54.4335 19.8606L54.7218 20.6432H55.8339V14.5145H52.3494V16.335ZM130.079 16.335C130.079 17.0846 130.079 17.653 130.037 17.9166C129.914 18.7321 129.411 19.0369 128.621 19.0369C127.83 19.0369 127.294 18.6909 127.171 17.9166C127.113 17.5377 127.105 16.4256 127.105 14.9181C127.105 13.4107 127.105 12.2986 127.171 11.9197C127.294 11.1454 127.813 10.7994 128.571 10.7994C129.329 10.7994 129.831 11.1783 129.947 11.9197C129.972 12.0844 129.988 12.4963 129.996 12.8588H132.072C132.072 12.4386 132.047 11.8703 131.998 11.5819C131.792 10.2639 130.96 8.79767 128.596 8.79767C126.232 8.79767 125.284 10.2228 125.07 11.5819C124.971 12.2409 124.971 13.4519 124.971 14.9181C124.971 16.3844 124.971 17.5953 125.07 18.2461C125.284 19.6218 126.306 21.0304 128.431 21.0304C129.461 21.0304 130.194 20.635 130.705 19.8689L130.993 20.6514H132.105V14.5227H128.621V16.335H130.079ZM107.343 15.8325V13.8967H103.875V11.1124H107.796V9.17659H101.799V20.6432H107.92V18.7074H103.867V15.8325H107.343ZM119.996 20.6432H122.129V9.17659H119.996V20.6432ZM140.293 9.17659V16.4421L137.443 9.17659H135.013V20.6432H137.015V12.7764L140.161 20.6432H142.287V9.17659H140.285H140.293ZM96.8238 17.62C96.6343 18.139 96.2554 18.7074 94.9786 18.7074H94.0971V11.1124H94.9786C96.2554 11.1124 96.6343 11.6808 96.8238 12.1998C97.0132 12.727 97.0215 13.3612 97.0215 14.9099C97.0215 16.4586 97.0215 17.0928 96.8238 17.62ZM95.0774 9.17659H92.0295V20.6432H95.0774C96.8732 20.6432 98.0182 20.0336 98.5454 18.8721C98.982 17.9084 99.0891 17.1835 99.0891 14.9099C99.0891 12.6363 98.982 11.9114 98.5454 10.9477C98.0182 9.78617 96.8732 9.17659 95.0774 9.17659ZM112.393 11.9526C112.393 11.1371 113.01 10.717 113.777 10.717C114.543 10.717 115.226 11.1701 115.235 12.2904H117.236C117.212 9.74498 115.449 8.79767 113.785 8.79767C112.03 8.79767 110.3 9.87678 110.3 11.9526C110.3 15.2724 115.268 15.3877 115.268 17.7107C115.268 18.5756 114.617 19.0616 113.735 19.0616C112.854 19.0616 112.104 18.452 112.014 17.2823H109.979C110.053 19.9101 111.956 21.0221 113.735 21.0221C115.515 21.0221 117.36 20.0831 117.36 17.7107C117.36 14.1521 112.393 13.9296 112.393 11.9526ZM51.1879 34.7953L52.3494 29.828L53.5109 34.7953H51.1879ZM50.9737 27.3568L48.1153 38.8234H50.2488L50.7513 36.6569H53.9475L54.4582 38.8234H56.5917L53.7333 27.3568H50.9737ZM73.3139 34.7953L74.4754 29.828L75.6369 34.7953H73.3139ZM73.0997 27.3568L70.2413 38.8234H72.3748L72.8773 36.6569H76.0734L76.5759 38.8234H78.7095L75.851 27.3568H73.0997ZM84.5087 32.5711H83.0836V29.2514H84.5087C85.6619 29.2514 86.0903 29.828 86.0903 30.9154C86.0903 32.0027 85.6537 32.5794 84.5087 32.5794M88.232 30.9154C88.232 28.6254 86.9717 27.365 84.6075 27.365H80.9583V38.8316H83.0918V34.4658H84.5087L86.1974 38.8316H88.4956L86.5763 34.0621C87.6636 33.5184 88.232 32.4476 88.232 30.9154ZM95.7446 35.8085C95.5552 36.3274 95.1845 36.8958 93.8994 36.8958H93.018V29.3008H93.8994C95.1845 29.3008 95.5552 29.8692 95.7446 30.3882C95.9341 30.9154 95.9423 31.5497 95.9423 33.0983C95.9423 34.647 95.9423 35.2813 95.7446 35.8085ZM97.4663 29.1361C96.9308 27.9746 95.7941 27.365 93.9983 27.365H90.9504V38.8316H93.9983C95.7941 38.8316 96.9391 38.2221 97.4663 37.0606C97.9029 36.0968 98.01 35.3719 98.01 33.0983C98.01 30.8248 97.9029 30.0999 97.4663 29.1361ZM65.7518 35.1659L64.5245 27.3568H62.2839L61.0565 35.1659L59.6808 27.3568H57.6379L59.8291 38.8234H62.1521L63.4042 30.8413L64.5327 38.8234H66.8721L69.1622 27.3568H67.1028L65.7436 35.1659H65.7518ZM119.749 29.8775C119.543 28.5183 118.711 27.1014 116.388 27.1014C114.065 27.1014 113.233 28.5265 113.027 29.8775C112.928 30.5365 112.928 31.6321 112.928 33.0901C112.928 34.5481 112.928 35.6437 113.027 36.3027C113.233 37.6619 114.065 39.087 116.388 39.087C118.711 39.087 119.543 37.6619 119.749 36.3027C119.848 35.6437 119.848 34.5564 119.848 33.0901C119.848 31.6238 119.848 30.5365 119.749 29.8775ZM117.714 35.965C117.599 36.7393 117.121 37.0853 116.38 37.0853C115.638 37.0853 115.169 36.7393 115.053 35.965C114.996 35.5861 114.996 34.5976 114.996 33.0901C114.996 31.5826 114.996 30.5941 115.053 30.2152C115.169 29.4326 115.646 29.0949 116.38 29.0949C117.113 29.0949 117.591 29.4409 117.714 30.2152C117.772 30.5941 117.772 31.5826 117.772 33.0901C117.772 34.5976 117.772 35.5861 117.714 35.965ZM110.745 30.2399C110.745 27.9169 108.883 27.0685 107.343 27.1014C105.811 27.1344 104.032 28.024 104.032 30.7754H106.05C106.05 29.5644 106.577 29.062 107.36 29.029C108.15 28.9961 108.694 29.4821 108.694 30.3223C108.694 31.4014 107.5 32.6865 104.122 36.9782V38.8564H110.572V36.9205H106.668C108.15 35.0259 109.328 33.5432 110.078 32.3734C110.531 31.6485 110.745 30.9483 110.745 30.2564V30.2399ZM128.744 30.2399C128.744 27.9169 126.882 27.0685 125.342 27.1014C123.81 27.1344 122.031 28.024 122.031 30.7754H124.049C124.049 29.5644 124.576 29.062 125.358 29.029C126.149 28.9961 126.693 29.4821 126.693 30.3223C126.693 31.4014 125.499 32.6865 122.121 36.9782V38.8564H128.571V36.9205H124.667C126.149 35.0259 127.327 33.5432 128.077 32.3734C128.53 31.6485 128.744 30.9483 128.744 30.2564V30.2399ZM137.583 36.3027C137.377 37.6619 136.43 39.087 134.098 39.087C131.767 39.087 130.869 37.6619 130.663 36.3027C130.622 35.9979 130.598 35.6684 130.606 35.3472H132.665C132.665 35.5614 132.673 35.7838 132.698 35.965C132.805 36.6981 133.316 37.1594 134.107 37.1594C134.898 37.1594 135.449 36.6981 135.557 35.965C135.598 35.6767 135.606 35.2483 135.557 34.9518C135.351 33.815 134.387 33.7573 133.612 33.7573V31.8215C134.387 31.8215 135.169 31.7721 135.318 30.6765C135.334 30.5777 135.334 30.2317 135.318 30.1328C135.219 29.4738 134.84 29.0125 134.107 29.0125C133.374 29.0125 133.036 29.4738 132.937 30.1328C132.929 30.1905 132.921 30.3552 132.921 30.487H130.869C130.853 30.2317 130.869 29.9598 130.902 29.7374C131.108 28.3782 131.973 27.0932 134.107 27.0932C136.24 27.0932 137.146 28.3865 137.352 29.7374C137.402 30.0587 137.402 30.487 137.352 30.8083C137.245 31.5003 136.891 32.2416 136.191 32.7359C137.039 33.1889 137.476 33.9138 137.591 34.6799C137.674 35.1989 137.674 35.7838 137.591 36.3027H137.583Z" fill="#231815"/>
</svg>
