<svg fill="none" height="15" viewBox="0 0 186 15" width="186" xmlns="http://www.w3.org/2000/svg"><g fill="#333"><path d="m83.1813 2.32289-1.6269.97158c-.306-.53292-.5939-.87732-.8711-1.04046-.2879-.18489-.6586-.27915-1.1121-.27915-.5579 0-1.0187.15951-1.3858.47854-.3671.31178-.5507.70694-.5507 1.17823 0 .65255.4823 1.17822 1.4469 1.577l1.3246.54742c1.0798.43867 1.8681.97521 2.3684 1.60964s.7486 1.41024.7486 2.32745c0 1.23256-.4067 2.24766-1.2238 3.05246-.8206.8085-1.8392 1.2145-3.0558 1.2145-1.1554 0-2.1056-.3444-2.8579-1.0332-.7414-.6888-1.2021-1.6568-1.3857-2.9039l2.0336-.4495c.09.7867.252 1.3305.4823 1.6314.414.5764 1.015.8664 1.8069.8664.6263 0 1.1446-.2102 1.5585-.6344.4139-.4205.6191-.9571.6191-1.606 0-.26102-.036-.50029-.108-.71419-.072-.21751-.1836-.41691-.3347-.59817-.1512-.18127-.3492-.35166-.5903-.51117-.2412-.15951-.5291-.31178-.8603-.45679l-1.2813-.53654c-1.8213-.77582-2.7283-1.90692-2.7283-3.40054 0-1.00421.3815-1.84891 1.1446-2.52321.7594-.681561 1.7097-1.02234 2.847-1.02234 1.5334 0 2.7283.750438 3.5922 2.25494z"/><path d="m91.377 2.22863v11.49227h-2.0049v-11.49227h-3.0558v-1.899658h8.1129v1.899658z"/><path d="m100.667 7.93486-4.341-7.605888h2.3072l3.0378 5.350948 3.049-5.350948h2.307l-4.355 7.605888v5.78604h-2.005z"/><path d="m112.332.328972v11.492228h3.909v1.8997h-5.917v-13.391928z"/><path d="m127.244 2.22863h-5.33v3.21927h5.176v1.89966h-5.176v4.47364h5.33v1.8997h-7.335v-13.391928h7.335z"/><path d="m141.055 8.28289v5.43801h-2.005v-13.391928h2.271c1.112 0 1.955.079757 2.523.235645.573.155888 1.08.449533 1.516.884573.763.75044 1.144 1.70027 1.144 2.84587 0 1.22535-.406 2.19693-1.223 2.91474-.814.71781-1.915 1.07672-3.297 1.07672h-.929zm0-1.87428h.749c1.842 0 2.764-.71418 2.764-2.14256 0-1.42837-.95-2.07367-2.851-2.07367h-.662z"/><path d="m170.951 8.01462 4.118 5.70628h-2.455l-3.797-5.48151h-.36v5.48151h-2.005v-13.391928h2.35c1.757 0 3.027.333528 3.805.996958.86.73956 1.292 1.7184 1.292 2.93287 0 .94983-.27 1.7619-.81 2.44709-.54.68155-1.253 1.12021-2.134 1.30873zm-2.498-1.5335h.637c1.901 0 2.851-.73232 2.851-2.19331 0-1.37037-.925-2.05555-2.772-2.05555h-.716z"/><path d="m182.141 2.22863v11.49227h-2.005v-11.49227h-3.055v-1.899658h8.113v1.899658z"/></g><path d="m160.837 7.95299h-1.886v-1.89966h1.886zm-4.852 4.02771c-2.811 0-5.071-2.36007-4.938-5.22044.115-2.44708 2.051-4.49175 4.47-4.71652 2.61-.23927 4.848 1.56613 5.316 4.00597h2.027c-.49-3.61806-3.715-6.358792-7.512-6.0216384-3.247.2900244-5.907 2.9002484-6.27 6.1666484-.468 4.22708 2.804 7.80528 6.903 7.80528 3.517 0 6.418-2.6356 6.879-6.05063h-2.027c-.439 2.29483-2.444 4.02773-4.852 4.02773z" fill="#3a72eb"/><g fill="#2a2757" opacity=".4"><path d="m.77002 4.66309h2.64c.80667 0 1.441.20533 1.903.616.462.41066.693.97166.693 1.683 0 .47666-.10267.891-.308 1.243s-.49867.62333-.88.814c-.38133.18333-.836.275-1.364.275h-1.98v-1.155h1.837c.41067 0 .726-.099.946-.297.22-.20534.33-.49134.33-.858 0-.36667-.11367-.65267-.341-.858-.22733-.20534-.539-.308-.935-.308h-1.276l.132-.132v6.31401h-1.397z"/><path d="m7.07233 6.86309h1.232l.088 1.023-.154.033c.16134-.35934.39233-.638.693-.836s.64167-.297 1.023-.297c.19797 0 .38497.02566.56097.077l-.198 1.199c-.1613-.05867-.32997-.088-.50597-.088-.27133 0-.51333.06233-.726.187-.20533.12466-.37033.29333-.495.506-.11733.21266-.176.46566-.176.759v2.57401h-1.342z"/><path d="m10.8369 9.42609c0-.528.1173-.99367.352-1.397.242-.41067.572-.73334.99-.968.4253-.242.902-.363 1.43-.363s1.001.121 1.419.363c.418.23466.748.55733.99.968.242.40333.363.869.363 1.397 0 .52066-.121.99001-.363 1.40801-.242.4107-.572.737-.99.979-.418.2347-.891.352-1.419.352s-1.0047-.1173-1.43-.352c-.418-.242-.748-.5683-.99-.979-.2347-.418-.352-.88735-.352-1.40801zm1.342.011c0 .308.0623.57931.187.81401s.2933.418.506.55.4583.198.737.198.5243-.066.737-.198.3777-.3153.495-.55c.1247-.242.187-.51701.187-.82501s-.0623-.57934-.187-.814c-.1173-.242-.2823-.42534-.495-.55-.2127-.132-.4583-.198-.737-.198s-.5243.066-.737.198c-.2127.12466-.3813.308-.506.55-.1247.23466-.187.50966-.187.825z"/><path d="m17.1318 9.58009c0-.55734.1137-1.05234.341-1.485.2274-.44.539-.781.935-1.023.4034-.24934.8617-.374 1.375-.374.3154 0 .6087.05866.88.176.2787.11.5537.275.825.495v1.221c-.22-.23467-.4583-.41434-.715-.539-.2566-.12467-.528-.187-.814-.187-.3006 0-.561.066-.781.198s-.3923.319-.517.561c-.1173.242-.176.528-.176.858 0 .46933.1137.83971.341 1.11101.2274.2713.5317.407.913.407.3667 0 .6637-.1247.891-.374.2274-.2493.341-.5683.341-.95701v-5.005h1.342v7.33701h-1.232l-.088-1.001.165.121c-.1466.3227-.374.5793-.682.77-.3006.1833-.6563.275-1.067.275-.4473 0-.8433-.1063-1.188-.319-.3446-.22-.6123-.5243-.803-.913-.1906-.3887-.286-.8397-.286-1.35301z"/><path d="m23.5286 10.0421v-3.17901h1.342v2.926c0 .38871.0807.68571.242.89101.1687.198.407.297.715.297.242 0 .4547-.0623.638-.187.1833-.132.3227-.3117.418-.539.1027-.2347.154-.50601.154-.81401v-2.574h1.342v5.13701h-1.221l-.088-1.023.165.022c-.1467.3667-.385.6527-.715.858-.3227.2053-.6967.308-1.122.308-.5867 0-1.045-.187-1.375-.561s-.495-.8947-.495-1.562z"/><path d="m29.3779 9.44809c0-.53534.121-1.00834.363-1.419.242-.41067.5757-.73334 1.001-.968.4327-.242.9167-.363 1.452-.363.7994 0 1.4594.286 1.98.858l-.748.847c-.1466-.176-.3226-.308-.528-.396-.2053-.09534-.4253-.143-.66-.143-.2933 0-.5536.066-.781.198-.22.132-.396.319-.528.561-.1246.23466-.187.506-.187.814s.0624.57931.187.81401c.132.2347.308.418.528.55.2274.132.4914.198.792.198.242 0 .4657-.0477.671-.143.2054-.0953.3924-.2347.561-.418l.726.869c-.2566.2787-.5573.4913-.902.638-.3446.1467-.726.22-1.144.22-.5426 0-1.023-.1137-1.441-.341-.418-.2347-.748-.5573-.99-.968-.2346-.4107-.352-.88001-.352-1.40801z"/><path d="m34.6539 9.45909c0-.54267.11-1.01934.33-1.43.2273-.418.5353-.74434.924-.979.396-.23467.8507-.352 1.364-.352.506 0 .9497.121 1.331.363.3887.23466.6893.56833.902 1.001.22.42533.33.924.33 1.496v.275h-4.532v-.858h3.509l-.242.286c0-.30067-.0513-.55734-.154-.77-.1027-.22-.2493-.385-.44-.495-.1833-.11734-.407-.176-.671-.176-.2713 0-.5097.06233-.715.187-.198.11733-.352.28233-.462.495-.11.21266-.165.46566-.165.759v.33c0 .308.0623.57571.187.80301.1247.22.3043.3887.539.506.242.1173.528.176.858.176.286 0 .561-.0477.825-.143s.5097-.2383.737-.429l.583.836c-.264.264-.594.4693-.99.616-.3887.1393-.8067.209-1.254.209-.5573 0-1.0487-.11-1.474-.33-.418-.2273-.7443-.5427-.979-.946-.2273-.4107-.341-.8873-.341-1.43001z"/><path d="m40.5498 9.58009c0-.55734.1137-1.05234.341-1.485.2273-.44.539-.781.935-1.023.4033-.24934.8617-.374 1.375-.374.3153 0 .6087.05866.88.176.2787.11.5537.275.825.495v1.221c-.22-.23467-.4583-.41434-.715-.539-.2567-.12467-.528-.187-.814-.187-.3007 0-.561.066-.781.198s-.3923.319-.517.561c-.1173.242-.176.528-.176.858 0 .46933.1137.83971.341 1.11101s.5317.407.913.407c.3667 0 .6637-.1247.891-.374s.341-.5683.341-.95701v-5.005h1.342v7.33701h-1.232l-.088-1.001.165.121c-.1467.3227-.374.5793-.682.77-.3007.1833-.6563.275-1.067.275-.4473 0-.8433-.1063-1.188-.319-.3447-.22-.6123-.5243-.803-.913s-.286-.8397-.286-1.35301z"/><path d="m49.0562 4.66309h2.75c.7406 0 1.3163.154 1.727.462.4106.308.616.74066.616 1.298 0 .32266-.0697.616-.209.88-.132.264-.319.473-.561.627-.2347.154-.506.23466-.814.242v-.11c.6233.02933 1.1073.21266 1.452.55.352.33733.528.78466.528 1.342 0 .65271-.2494 1.15871-.748 1.51801-.4987.352-1.2027.528-2.112.528h-2.629zm4.059 5.181c0-.35934-.1247-.63434-.374-.825-.2494-.198-.6124-.297-1.089-.297h-1.914v-1.034h1.815c.2493 0 .462-.04034.638-.121.1833-.088.3226-.20534.418-.352.1026-.154.154-.33.154-.528 0-.29334-.0954-.517-.286-.671-.1907-.16134-.462-.242-.814-.242h-1.232v5.11501h1.21c.9826 0 1.474-.3483 1.474-1.04501z"/><path d="m59.022 6.86309h1.419l-2.365 5.64301c-.1907.4473-.3814.8067-.572 1.078-.1907.2787-.3997.4767-.627.594-.22.1247-.4767.187-.77.187-.462 0-.88-.132-1.254-.396l.484-.935c.1246.0807.2383.1393.341.176.1026.0367.2053.055.308.055.1833 0 .3446-.0697.484-.209.1466-.1393.2896-.3813.429-.726l.22-.55h.143zm-4.246 0h1.496l1.705 4.36701-.561 1.474z"/></g></svg>